<svg width="855" height="323" viewBox="0 0 855 323" fill="none" xmlns="http://www.w3.org/2000/svg">
<g clip-path="url(#clip0_99_32946)">
<path opacity="0.06" d="M0 261.289H149.646V316.093H212.671V261.289H251.338V208.464H212.671V4.31836H130.16L0 209.377V261.289ZM150.864 208.464H66.3739V206.028L148.428 76.1727H150.864V208.464Z" fill="#0A5840"/>
<path opacity="0.06" d="M426.074 322.944C504.474 322.944 551.819 263.268 551.971 160.51C552.123 58.5135 504.17 0.0556641 426.074 0.0556641C347.826 0.0556641 300.329 58.3612 300.177 160.51C299.872 262.964 347.521 322.792 426.074 322.944ZM426.074 268.292C390.299 268.292 367.159 232.365 367.312 160.51C367.464 89.7214 390.451 54.0987 426.074 54.0987C461.544 54.0987 484.684 89.7214 484.684 160.51C484.836 232.365 461.697 268.292 426.074 268.292Z" fill="#0A5840"/>
<path opacity="0.06" d="M602.828 261.289H752.474V316.093H815.499V261.289H854.166V208.464H815.499V4.31836H732.988L602.828 209.377V261.289ZM753.692 208.464H669.202V206.028L751.256 76.1727H753.692V208.464Z" fill="#0A5840"/>
</g>
<defs>
<clipPath id="clip0_99_32946">
<rect width="854.167" height="322.888" fill="white" transform="translate(0 0.0556641)"/>
</clipPath>
</defs>
</svg>
