<svg width="60" height="20" viewBox="0 0 60 20" fill="none" xmlns="http://www.w3.org/2000/svg">
<path fill-rule="evenodd" clip-rule="evenodd" d="M3.41323 5.3032C8.472 7.03045 12.6478 6.67501 15.6255 5.85114C16.0157 5.74318 16.3859 5.62699 16.7354 5.50605C16.713 4.02758 15.5076 2.83594 14.0238 2.83594H6.11421C4.69893 2.83594 3.53687 3.92009 3.41323 5.3032ZM16.7357 8.43391C16.1732 8.58739 15.6232 8.78231 15.0891 9.02286C12.6303 10.1301 10.3468 12.2764 8.70603 16.1693H14.0238C15.5215 16.1693 16.7357 14.9551 16.7357 13.4574V8.43391ZM5.79828 16.1511C6.89562 13.1855 8.34782 10.9192 10.055 9.24196C8.03012 9.19934 5.80162 8.88168 3.40234 8.14946V13.4574C3.40234 14.8483 4.4494 15.9946 5.79828 16.1511Z" fill="#0158FF"/>
<path d="M53.4603 14.6361C51.4982 14.6361 50.4386 13.6551 50.334 12.2816L51.7729 12.2162C51.8906 12.9879 52.3876 13.4719 53.4603 13.4719C54.3236 13.4719 54.873 13.2103 54.873 12.5955C54.873 12.0854 54.6113 11.863 53.2117 11.6276C51.145 11.2613 50.504 10.6596 50.504 9.52158C50.504 8.25276 51.4851 7.36328 53.2902 7.36328C55.0692 7.36328 56.011 8.38357 56.2072 9.65239L54.7814 9.73087C54.6506 9.01144 54.1404 8.52746 53.2771 8.52746C52.3746 8.52746 51.9429 8.91987 51.9429 9.46926C51.9429 10.084 52.3615 10.3326 53.4995 10.5157C55.6578 10.8689 56.3118 11.4444 56.3118 12.5824C56.3118 13.8905 55.1215 14.6361 53.4603 14.6361Z" fill="#0158FF"/>
<path d="M48.4519 14.4776V7.51875H49.8385V14.4776H48.4519ZM48.4258 6.51154V5.125H49.8777V6.51154H48.4258Z" fill="#0158FF"/>
<path d="M35.2266 14.4791V7.52025H36.4954L36.5215 8.72366C36.8616 7.87343 37.5811 7.36328 38.4575 7.36328C39.4908 7.36328 40.2103 7.89959 40.5111 8.80215C40.8251 7.87342 41.5314 7.36328 42.5255 7.36328C43.9906 7.36328 44.8277 8.30508 44.8277 10.0056V14.4791H43.4412V10.3457C43.4412 9.14224 43.0095 8.52746 42.12 8.52746C41.2436 8.52746 40.6812 9.22073 40.6812 10.398V14.4791H39.36V10.398C39.36 9.22073 38.9938 8.52746 38.0651 8.52746C37.1756 8.52746 36.6131 9.23381 36.6131 10.398V14.4791H35.2266Z" fill="#0158FF"/>
<path d="M31.642 14.6361C29.6276 14.6361 28.3457 13.1972 28.3457 10.9997C28.3457 8.80215 29.6276 7.36328 31.6028 7.36328C33.4995 7.36328 34.7944 8.71058 34.7944 11.052V11.4052H29.7977C29.8631 12.7656 30.5563 13.4458 31.6551 13.4458C32.4792 13.4458 33.0286 13.0403 33.2509 12.3862L34.6898 12.4778C34.3235 13.7728 33.1855 14.6361 31.642 14.6361ZM33.3163 10.3587C33.2379 9.12916 32.5577 8.54054 31.6028 8.54054C30.6217 8.54054 29.9546 9.18149 29.7977 10.3587H33.3163Z" fill="#0158FF"/>
<path d="M25.1484 14.4786V6.48639H22.2969V5.19141H29.4127V6.48639H26.5612V14.4786H25.1484Z" fill="#0158FF"/>
<path d="M47.3856 5.10547H45.957V14.533H46.6713H47.3856V5.10547Z" fill="#0158FF"/>
</svg>
