<svg width="78" height="28" viewBox="0 0 78 28" fill="none" xmlns="http://www.w3.org/2000/svg">
<path d="M13.3955 1.87891L64 1.87891C70.8458 1.87891 76.3955 7.42866 76.3955 14.2744V14.5537C76.3953 21.3993 70.8456 26.9482 64 26.9482H13.3955C6.54987 26.9482 1.00021 21.3993 1 14.5537V14.2744C1 7.42865 6.54975 1.87891 13.3955 1.87891Z" fill="white"/>
<path d="M13.3955 1.87891L64 1.87891C70.8458 1.87891 76.3955 7.42866 76.3955 14.2744V14.5537C76.3953 21.3993 70.8456 26.9482 64 26.9482H13.3955C6.54987 26.9482 1.00021 21.3993 1 14.5537V14.2744C1 7.42865 6.54975 1.87891 13.3955 1.87891Z" stroke="#E6E6E6" stroke-width="2"/>
<path fill-rule="evenodd" clip-rule="evenodd" d="M27.1153 9.38672L21.7724 19.4332H16.754L18.99 15.2695H18.8896C17.045 17.5728 14.2927 19.0891 10.3711 19.4332V15.3272C10.3711 15.3272 12.8798 15.1846 14.3546 13.6932H10.3711V9.3868H14.8482V12.9287L14.9487 12.9283L16.7782 9.3868H20.1641V12.9063L20.2645 12.9061L22.1627 9.38672H27.1153Z" fill="#0158FF"/>
<g clip-path="url(#clip0_3169_2408)">
<path fill-rule="evenodd" clip-rule="evenodd" d="M36.9727 17.2227H41.525V21.5582L36.9727 17.2227Z" fill="black"/>
<path d="M41.525 12.8867H36.9727V17.2223H46.0773L41.525 12.8867Z" fill="black"/>
<path d="M36.9727 8.55078L41.525 12.8864H46.0773V8.55078H36.9727Z" fill="black"/>
</g>
<path d="M59.6846 20.4552C60.772 20.4552 61.6544 19.5727 61.6544 18.4854V16.5156H59.6846C58.5973 16.5156 57.7148 17.3981 57.7148 18.4854C57.7148 19.5727 58.5973 20.4552 59.6846 20.4552Z" fill="#0ACF83"/>
<path d="M57.7148 14.5401C57.7148 13.4528 58.5973 12.5703 59.6846 12.5703H61.6544V16.5099H59.6846C58.5973 16.5099 57.7148 15.6274 57.7148 14.5401Z" fill="#A259FF"/>
<path d="M57.7148 10.6065C57.7148 9.51918 58.5973 8.63672 59.6846 8.63672H61.6544V12.5763H59.6846C58.5973 12.5763 57.7148 11.6938 57.7148 10.6065Z" fill="#F24E1E"/>
<path d="M61.6562 8.63672H63.626C64.7134 8.63672 65.5958 9.51918 65.5958 10.6065C65.5958 11.6938 64.7134 12.5763 63.626 12.5763H61.6562V8.63672Z" fill="#FF7262"/>
<path d="M65.5958 14.5401C65.5958 15.6274 64.7134 16.5099 63.626 16.5099C62.5387 16.5099 61.6562 15.6274 61.6562 14.5401C61.6562 13.4528 62.5387 12.5703 63.626 12.5703C64.7134 12.5703 65.5958 13.4528 65.5958 14.5401Z" fill="#1ABCFE"/>
<defs>
<clipPath id="clip0_3169_2408">
<rect width="15.0698" height="15.0698" fill="white" transform="translate(33.2539 6.87891)"/>
</clipPath>
</defs>
</svg>
