<svg width="79" height="28" viewBox="0 0 79 28" fill="none" xmlns="http://www.w3.org/2000/svg">
<path d="M14.2236 1.87891L64.8281 1.87891C71.6739 1.87891 77.2236 7.42866 77.2236 14.2744V14.5537C77.2234 21.3993 71.6738 26.9482 64.8281 26.9482H14.2236C7.378 26.9482 1.82833 21.3993 1.82813 14.5537V14.2744C1.82813 7.42865 7.37787 1.87891 14.2236 1.87891Z" fill="white"/>
<path d="M14.2236 1.87891L64.8281 1.87891C71.6739 1.87891 77.2236 7.42866 77.2236 14.2744V14.5537C77.2234 21.3993 71.6738 26.9482 64.8281 26.9482H14.2236C7.378 26.9482 1.82833 21.3993 1.82813 14.5537V14.2744C1.82813 7.42865 7.37787 1.87891 14.2236 1.87891Z" stroke="black" stroke-width="2"/>
<path fill-rule="evenodd" clip-rule="evenodd" d="M27.9434 9.38672L22.6006 19.4332H17.5821L19.8181 15.2695H19.7178C17.8731 17.5728 15.1208 19.0891 11.1992 19.4332V15.3272C11.1992 15.3272 13.708 15.1846 15.1828 13.6932H11.1992V9.3868H15.6763V12.9287L15.7768 12.9283L17.6063 9.3868H20.9922V12.9063L21.0926 12.9061L22.9908 9.38672H27.9434Z" fill="#0158FF"/>
<g clip-path="url(#clip0_3169_2421)">
<path fill-rule="evenodd" clip-rule="evenodd" d="M37.8008 17.2227H42.3531V21.5582L37.8008 17.2227Z" fill="black"/>
<path d="M42.3531 12.8867H37.8008V17.2223H46.9054L42.3531 12.8867Z" fill="black"/>
<path d="M37.8008 8.55078L42.3531 12.8864H46.9054V8.55078H37.8008Z" fill="black"/>
</g>
<path d="M60.5128 20.4552C61.6001 20.4552 62.4825 19.5727 62.4825 18.4854V16.5156H60.5128C59.4254 16.5156 58.543 17.3981 58.543 18.4854C58.543 19.5727 59.4254 20.4552 60.5128 20.4552Z" fill="#0ACF83"/>
<path d="M58.543 14.5401C58.543 13.4528 59.4254 12.5703 60.5128 12.5703H62.4825V16.5099H60.5128C59.4254 16.5099 58.543 15.6274 58.543 14.5401Z" fill="#A259FF"/>
<path d="M58.543 10.6065C58.543 9.51918 59.4254 8.63672 60.5128 8.63672H62.4825V12.5763H60.5128C59.4254 12.5763 58.543 11.6938 58.543 10.6065Z" fill="#F24E1E"/>
<path d="M62.4844 8.63672H64.4542C65.5415 8.63672 66.4239 9.51918 66.4239 10.6065C66.4239 11.6938 65.5415 12.5763 64.4542 12.5763H62.4844V8.63672Z" fill="#FF7262"/>
<path d="M66.4239 14.5401C66.4239 15.6274 65.5415 16.5099 64.4542 16.5099C63.3668 16.5099 62.4844 15.6274 62.4844 14.5401C62.4844 13.4528 63.3668 12.5703 64.4542 12.5703C65.5415 12.5703 66.4239 13.4528 66.4239 14.5401Z" fill="#1ABCFE"/>
<defs>
<clipPath id="clip0_3169_2421">
<rect width="15.0698" height="15.0698" fill="white" transform="translate(34.082 6.87891)"/>
</clipPath>
</defs>
</svg>
